<svg xmlns="http://www.w3.org/2000/svg" width="400" height="400" viewBox="0 0 400 400">
  <rect width="400" height="400" rx="20" fill="transparent"/>
  <!-- Terminal window -->
  <rect x="75" y="40" width="250" height="115" rx="12" fill="#0a0f1a" stroke="#334155" stroke-width="2.5"/>
  <circle cx="97" cy="58" r="5" fill="#ef4444"/>
  <circle cx="113" cy="58" r="5" fill="#eab308"/>
  <circle cx="129" cy="58" r="5" fill="#22c55e"/>
  <rect x="92" y="74" width="55" height="7" rx="3.5" fill="#22c55e" opacity="0.8"/>
  <rect x="153" y="74" width="30" height="7" rx="3.5" fill="#60a5fa" opacity="0.7"/>
  <rect x="92" y="88" width="72" height="7" rx="3.5" fill="#f59e0b" opacity="0.6"/>
  <rect x="105" y="102" width="45" height="7" rx="3.5" fill="#a78bfa" opacity="0.5"/>
  <rect x="156" y="102" width="35" height="7" rx="3.5" fill="#f87171" opacity="0.5"/>
  <rect x="105" y="116" width="58" height="7" rx="3.5" fill="#94a3b8" opacity="0.4"/>
  <rect x="92" y="130" width="40" height="7" rx="3.5" fill="#22c55e" opacity="0.5"/>
  <!-- API docs panel -->
  <rect x="75" y="168" width="250" height="85" rx="12" fill="#0a0f1a" stroke="#334155" stroke-width="2.5"/>
  <rect x="92" y="183" width="58" height="25" rx="5" fill="#22c55e"/>
  <text x="121" y="200" text-anchor="middle" fill="white" font-family="system-ui" font-size="13" font-weight="700">GET</text>
  <rect x="157" y="183" width="152" height="25" rx="5" fill="#1e293b"/>
  <text x="233" y="200" text-anchor="middle" fill="#94a3b8" font-family="system-ui" font-size="12">/api/users</text>
  <rect x="92" y="215" width="58" height="25" rx="5" fill="#3b82f6"/>
  <text x="121" y="232" text-anchor="middle" fill="white" font-family="system-ui" font-size="13" font-weight="700">POST</text>
  <rect x="157" y="215" width="152" height="25" rx="5" fill="#1e293b"/>
  <text x="233" y="232" text-anchor="middle" fill="#94a3b8" font-family="system-ui" font-size="12">/api/auth/login</text>
  <!-- Labels -->
  <text x="200" y="300" text-anchor="middle" fill="#ffffff" font-family="system-ui" font-size="20" font-weight="700">DarkTheme FastAPI</text>
  <text x="200" y="328" text-anchor="middle" fill="#d4d4d4" font-family="system-ui" font-size="16">Auth Server Template</text>
  <text x="200" y="386" text-anchor="middle" fill="#22c55e" font-family="system-ui" font-size="14" font-weight="600">Python</text>
</svg>
