<svg xmlns="http://www.w3.org/2000/svg" viewBox="0 0 24 24" fill="#2EAD33"><path d="M17.29 1.404c-1.634.257-3.768 1.085-5.824 2.596a.463.463 0 0 1-.553-.003C8.866 2.497 6.734 1.665 5.096 1.404a.472.472 0 0 0-.54.468v9.1c0 3.486 2.093 6.683 5.348 8.518l2.868 1.614a.475.475 0 0 0 .464 0l2.869-1.614c3.255-1.835 5.348-5.032 5.348-8.518v-9.1a.472.472 0 0 0-.54-.468zM12 19.89l-2.396-1.35c-2.77-1.56-4.556-4.28-4.556-7.24V3.148c1.37.3 3.17 1.04 4.952 2.44a2.475 2.475 0 0 0 4 0c1.782-1.4 3.582-2.14 4.952-2.44v8.152c0 2.96-1.786 5.68-4.556 7.24L12 19.89z"/></svg>
