<svg xmlns="http://www.w3.org/2000/svg" viewBox="0 0 24 24" fill="#F22F46"><path d="M12 0C5.381 0 0 5.381 0 12s5.381 12 12 12 12-5.381 12-12S18.619 0 12 0zm0 20.756c-4.831 0-8.756-3.924-8.756-8.756S7.169 3.244 12 3.244s8.756 3.924 8.756 8.756-3.924 8.756-8.756 8.756zm3.012-11.768a2.357 2.357 0 11-4.713 0 2.357 2.357 0 014.713 0zm0 5.024a2.357 2.357 0 11-4.713 0 2.357 2.357 0 014.713 0zm-5.024 0a2.357 2.357 0 11-4.714 0 2.357 2.357 0 014.714 0zm0-5.024a2.357 2.357 0 11-4.714 0 2.357 2.357 0 014.714 0z"/></svg>
